<svg width="24" height="24" viewBox="0 0 24 24" fill="none" xmlns="http://www.w3.org/2000/svg">
<path d="M6.99805 0C3.13905 0 0 3.08057 0 6.86515V16.6698C0 20.4534 3.14195 23.5311 7.00195 23.5311H17.002C20.861 23.5311 24 20.4505 24 16.6659V6.86132C24 3.07772 20.858 0 16.998 0H6.99805ZM19 3.92185C19.552 3.92185 20 4.36109 20 4.90231C20 5.44352 19.552 5.88277 19 5.88277C18.448 5.88277 18 5.44352 18 4.90231C18 4.36109 18.448 3.92185 19 3.92185ZM12 5.88277C15.309 5.88277 18 8.52119 18 11.7655C18 15.0099 15.309 17.6483 12 17.6483C8.691 17.6483 6 15.0099 6 11.7655C6 8.52119 8.691 5.88277 12 5.88277ZM12 7.84369C10.9391 7.84369 9.92172 8.25689 9.17157 8.99238C8.42143 9.72787 8 10.7254 8 11.7655C8 12.8057 8.42143 13.8032 9.17157 14.5387C9.92172 15.2742 10.9391 15.6874 12 15.6874C13.0609 15.6874 14.0783 15.2742 14.8284 14.5387C15.5786 13.8032 16 12.8057 16 11.7655C16 10.7254 15.5786 9.72787 14.8284 8.99238C14.0783 8.25689 13.0609 7.84369 12 7.84369Z" fill="#FFFFFE"/>
</svg>
