<svg xmlns="http://www.w3.org/2000/svg" width="17" height="20" fill="none" viewBox="0 0 17 20"><path fill="#048A81" d="M16.6434 10.8828L10.5719 17.1328C10.3367 17.3789 10.0255 17.5 9.71435 17.5C9.40319 17.5 9.09278 17.3779 8.856 17.1338C8.38167 16.6455 8.38167 15.8545 8.856 15.3662L12.8563 11.25H1.21435C0.543834 11.25 0.00012207 10.6914 0.00012207 10C0.00012207 9.30859 0.543834 8.75 1.21435 8.75H12.8563L8.85676 4.63281C8.38243 4.14453 8.38243 3.35352 8.85676 2.86523C9.33109 2.37695 10.0995 2.37695 10.5738 2.86523L16.6453 9.11523C17.1177 9.60547 17.1177 10.3945 16.6434 10.8828Z"/></svg>