<svg xmlns="http://www.w3.org/2000/svg" width="30" height="26" fill="none" viewBox="0 0 30 26"><g clip-path="url(#clip0_225_2615)"><path fill="#F3C969" d="M19.8542 7.63242L27.3386 8.70899C27.9584 8.79531 28.4792 9.22188 28.6771 9.80586C28.8751 10.3949 28.7136 11.0348 28.2657 11.4715L22.8386 16.6613L24.1199 24.1059C24.224 24.7152 23.9688 25.3348 23.448 25.6953C22.9324 26.0559 22.2501 26.1016 21.6928 25.8121L15.0053 22.3336L8.32298 25.8121C7.76048 26.1016 7.07818 26.0559 6.56256 25.6953C6.04693 25.3348 5.78652 24.7152 5.89589 24.1059L7.17714 16.6613L1.74902 11.4715C1.30058 11.0348 1.14121 10.3949 1.33808 9.80586C1.53443 9.22188 2.05371 8.79531 2.67818 8.70899L10.1563 7.63242L13.5105 0.912541C13.7865 0.353135 14.3699 -0.00198364 15.0053 -0.00198364C15.6459 -0.00198364 16.2292 0.353135 16.5053 0.912541L19.8542 7.63242Z"/></g><defs><clipPath id="clip0_225_2615"><rect width="30" height="26" fill="#fff"/></clipPath></defs></svg>