<svg width="26" height="23" viewBox="0 0 26 23" fill="none" xmlns="http://www.w3.org/2000/svg">
<path d="M26 3.53369C25.043 3.96756 24.0151 4.25953 22.9361 4.39123C24.0381 3.71745 24.883 2.65063 25.281 1.37861C24.2511 2.00237 23.1091 2.45564 21.8932 2.70065C20.9202 1.642 19.5342 0.980469 18.0003 0.980469C15.0544 0.980469 12.6665 3.41935 12.6665 6.42584C12.6665 6.85257 12.7145 7.26908 12.8045 7.66621C8.37168 7.43957 4.44183 5.27122 1.80993 1.97583C1.35195 2.78028 1.08896 3.7154 1.08896 4.71485C1.08896 6.60347 2.02992 8.27057 3.46087 9.24653C2.5869 9.21794 1.76393 8.97293 1.04496 8.5656C1.04496 8.58908 1.04496 8.61052 1.04496 8.634C1.04496 11.273 2.88289 13.474 5.3238 13.9732C4.87681 14.0977 4.40483 14.1641 3.91785 14.1641C3.57486 14.1641 3.23988 14.1294 2.91489 14.0671C3.59386 16.2304 5.56379 17.8056 7.8977 17.8495C6.07277 19.3104 3.77286 20.1812 1.27295 20.1812C0.842968 20.1812 0.417984 20.1556 0 20.1046C2.36091 21.6492 5.1638 22.5506 8.17669 22.5506C17.9883 22.5506 23.3521 14.2529 23.3521 7.05674C23.3521 6.82092 23.3471 6.58612 23.3371 6.35234C24.3801 5.58361 25.285 4.62501 26 3.53369Z" fill="#FFFFFE"/>
</svg>
