<svg width="34" height="19" viewBox="0 0 34 19" fill="none" xmlns="http://www.w3.org/2000/svg">
<path d="M12.0909 6.1875C11.9716 5.77273 11.804 5.40625 11.5881 5.08807C11.3722 4.7642 11.108 4.49148 10.7955 4.26989C10.4886 4.04261 10.1364 3.86932 9.73864 3.75C9.34659 3.63068 8.91193 3.57102 8.43466 3.57102C7.54261 3.57102 6.75852 3.79261 6.08239 4.23579C5.41193 4.67898 4.8892 5.32386 4.5142 6.17045C4.1392 7.01136 3.9517 8.03977 3.9517 9.25568C3.9517 10.4716 4.13636 11.5057 4.50568 12.358C4.875 13.2102 5.39773 13.8608 6.07386 14.3097C6.75 14.7528 7.5483 14.9744 8.46875 14.9744C9.30398 14.9744 10.017 14.8267 10.608 14.5312C11.2045 14.2301 11.6591 13.8068 11.9716 13.2614C12.2898 12.7159 12.4489 12.071 12.4489 11.3267L13.1989 11.4375H8.69886V8.65909H16.0028V10.858C16.0028 12.392 15.679 13.7102 15.0312 14.8125C14.3835 15.9091 13.4915 16.7557 12.3551 17.3523C11.2188 17.9432 9.91761 18.2386 8.4517 18.2386C6.81534 18.2386 5.37784 17.8778 4.1392 17.1562C2.90057 16.429 1.93466 15.3977 1.24148 14.0625C0.553977 12.7216 0.210227 11.1307 0.210227 9.28977C0.210227 7.875 0.414773 6.61364 0.823864 5.50568C1.23864 4.39205 1.81818 3.44886 2.5625 2.67614C3.30682 1.90341 4.1733 1.31534 5.16193 0.911931C6.15057 0.508522 7.22159 0.306818 8.375 0.306818C9.36364 0.306818 10.2841 0.451704 11.1364 0.741477C11.9886 1.02557 12.7443 1.42898 13.4034 1.9517C14.0682 2.47443 14.6108 3.09659 15.0312 3.81818C15.4517 4.53409 15.7216 5.32386 15.8409 6.1875H12.0909ZM18.7749 18V0.545454H22.4652V7.74716H29.9567V0.545454H33.6385V18H29.9567V10.7898H22.4652V18H18.7749Z" fill="#048A81"/>
</svg>
